<svg width="40" height="37" viewBox="0 0 40 37" fill="none" xmlns="http://www.w3.org/2000/svg">
<rect width="40" height="36.1517" rx="4.79929" fill="#102122"/>
<g clip-path="url(#clip0_4767_5324)">
<rect x="2.88672" y="2.88525" width="34.2313" height="30.3809" rx="2.45243" fill="#FFF6D7"/>
<path d="M20.4189 5.82812C20.1163 5.99325 19.8348 6.18463 19.5781 6.40625C19.1685 6.7599 18.8441 7.17981 18.5928 7.6543H18.082C16.9077 7.65439 16.1 7.88589 15.6406 8.33398C15.1822 8.78157 14.9463 9.58975 14.9463 10.7734V15.416C14.9463 16.2032 14.8128 16.8175 14.5439 17.2549C14.2805 17.6831 13.8693 17.9321 13.3242 18.0068V18.2021C13.8694 18.2769 14.2805 18.5258 14.5439 18.9541C14.8128 19.3915 14.9463 20.0057 14.9463 20.793V25.4355C14.9463 26.6036 15.1825 27.4064 15.6416 27.8633C16.1009 28.3201 16.908 28.5546 18.082 28.5547H18.5312C18.7899 29.0777 19.1351 29.5374 19.5781 29.9199C19.7764 30.0911 19.9898 30.2437 20.2158 30.3809H18.082C16.3077 30.3808 15.0025 30.0015 14.1855 29.2295C13.3676 28.4561 12.9639 27.1864 12.9639 25.4355V20.8662C12.9639 20.2752 12.7979 19.8344 12.4785 19.54C12.1581 19.2448 11.6855 19.0908 11.0557 19.0908H10.0156V17.1182H11.0557C11.6853 17.1182 12.1581 16.964 12.4785 16.6689C12.7977 16.3746 12.9638 15.9336 12.9639 15.3428V10.7734C12.9639 9.0226 13.3677 7.75388 14.1855 6.98047C15.0025 6.20826 16.3074 5.82822 18.082 5.82812H20.4189ZM14.2246 29.1875C14.3733 29.328 14.5396 29.4549 14.7217 29.5693C14.5398 29.455 14.3742 29.3279 14.2256 29.1875C14.177 29.1416 14.1296 29.0937 14.084 29.0439C14.1293 29.0936 14.1761 29.1416 14.2246 29.1875ZM15.7959 28.0703C15.8135 28.0832 15.8323 28.095 15.8506 28.1074C15.7958 28.0701 15.743 28.0317 15.6943 27.9902L15.7959 28.0703ZM14.4639 6.81934C14.38 6.8838 14.2998 6.95136 14.2246 7.02246C14.1747 7.06968 14.1259 7.11889 14.0791 7.16992C14.0337 7.21942 13.9897 7.27113 13.9473 7.32422C14.0338 7.21611 14.127 7.11568 14.2256 7.02246C14.3007 6.95149 14.3803 6.88375 14.4639 6.81934Z" fill="#78A3A5"/>
<path d="M27.2432 29.1871C26.3297 28.4296 25.8744 27.1802 25.8744 25.4359V22.088C25.8744 21.4526 25.7064 20.9669 25.3734 20.6339C25.0404 20.301 24.5546 20.1329 23.9191 20.1329H22.9414V16.0763H23.9191C24.5546 16.0763 25.0404 15.9083 25.3734 15.5753C25.7064 15.2423 25.8744 14.7566 25.8744 14.1213V10.7733C25.8744 9.02905 26.3297 7.77967 27.2432 7.0221C28.1567 6.26453 29.6232 5.88574 31.6427 5.88574H34.2336V9.94241H32.767C32.0338 9.94241 31.5236 10.1013 31.2394 10.4189C30.9553 10.7366 30.8117 11.3109 30.8117 12.1418V14.9277C30.8117 15.9694 30.6437 16.7208 30.3106 17.176C29.9776 17.6311 29.3605 17.8938 28.4653 17.958V18.2512C29.3605 18.3154 29.9776 18.5781 30.3106 19.0332C30.6437 19.4884 30.8117 20.2399 30.8117 21.2815V24.0674C30.8117 24.883 30.9583 25.4512 31.2516 25.7781C31.5449 26.1049 32.0491 26.2668 32.767 26.2668H34.2336V30.3235H31.6427C29.6232 30.3235 28.1567 29.9447 27.2432 29.1871Z" fill="#08484B"/>
<path d="M27.1719 5.88574C26.9885 5.99801 26.8151 6.11977 26.6533 6.25391C25.9704 6.82026 25.5153 7.56784 25.249 8.45117H24.5264C23.5005 8.45134 22.7786 8.66248 22.3633 9.08691C21.9482 9.51158 21.7403 10.2512 21.7402 11.3105V15.2695C21.7402 16.1155 21.6031 16.7603 21.3252 17.2002C21.0471 17.6398 20.5761 17.8939 19.9072 17.958V18.251C20.5762 18.3151 21.0471 18.5691 21.3252 19.0088C21.6032 19.4487 21.7402 20.0934 21.7402 20.9395V24.8984C21.7403 25.9578 21.9482 26.6974 22.3633 27.1221C22.7786 27.5465 23.5005 27.7576 24.5264 27.7578H25.2871C25.5576 28.5908 26.0005 29.2984 26.6533 29.8398C26.8716 30.0209 27.1099 30.1817 27.3672 30.3232H24.1846C22.4099 30.3231 21.0708 29.9358 20.1758 29.1631C19.2809 28.3902 18.8321 27.1459 18.832 25.4355V21.3057C18.832 20.704 18.664 20.2425 18.3311 19.9248C17.9981 19.6074 17.512 19.4483 16.877 19.4482H15.8984V16.7607H16.877C17.5119 16.7607 17.9951 16.6015 18.3311 16.2842C18.6671 15.9665 18.832 15.505 18.832 14.9033V10.7734C18.832 9.06339 19.2812 7.81978 20.1758 7.04688C21.0708 6.27415 22.4099 5.88586 24.1846 5.88574H27.1719Z" fill="#4C8486"/>
<path d="M12.5225 28.5059C12.7545 29.0165 13.0631 29.4667 13.4609 29.8428C13.6636 30.0343 13.8853 30.2037 14.124 30.3525H2.88672V28.5059H12.5225ZM11.9541 25.6211C11.9685 26.3236 12.0462 26.9824 12.2012 27.583H2.88672V25.6211H11.9541ZM11.9502 24.6973H2.88672V22.8516H11.9502V24.6973ZM11.1758 19.9658C11.5196 19.994 11.6844 20.0891 11.7627 20.1611C11.8371 20.2297 11.9502 20.3892 11.9502 20.8086V21.9277H2.88672V19.9658H11.1758ZM9.00195 19.0332C9.00195 19.0365 9.0029 19.0397 9.00293 19.043H2.88672V17.0811H9.00195V19.0332ZM11.9502 15.2861C11.9501 15.7049 11.837 15.8639 11.7627 15.9326C11.67 16.018 11.4536 16.1572 10.9639 16.1572H2.88672V14.1953H11.9502V15.2861ZM11.9502 13.2725H2.88672V11.3682H11.9502V13.2725ZM12.1943 8.54102C12.0464 9.12542 11.9698 9.76409 11.9541 10.4443H2.88672V8.54102H12.1943ZM14.0811 5.77051C13.8589 5.91261 13.6512 6.07212 13.4609 6.25195C13.0557 6.63507 12.7422 7.09462 12.5088 7.61719H2.88672V5.77051H14.0811ZM13.7881 7.35547C13.7986 7.34136 13.8096 7.32735 13.8203 7.31348C13.8331 7.29679 13.8463 7.28002 13.8594 7.26367L13.9541 7.15137L13.7881 7.35547Z" fill="url(#paint0_linear_4767_5324)"/>
</g>
<defs>
<linearGradient id="paint0_linear_4767_5324" x1="8.50537" y1="5.77051" x2="8.50537" y2="30.3525" gradientUnits="userSpaceOnUse">
<stop stop-color="#E6AC57"/>
<stop offset="0.504808" stop-color="#CE7A3B"/>
<stop offset="1" stop-color="#E6AC57"/>
</linearGradient>
<clipPath id="clip0_4767_5324">
<rect x="2.88672" y="2.88525" width="34.2313" height="30.3809" rx="2.45243" fill="white"/>
</clipPath>
</defs>
</svg>
