<svg fill="none" height="20" viewBox="0 0 20 20" width="20" xmlns="http://www.w3.org/2000/svg"><path d="m5 11h10v-2h-10zm5 9c-1.38333 0-2.68333-.2627-3.9-.788-1.21666-.5253-2.275-1.2377-3.175-2.137s-1.61233-1.9577-2.136999-3.175c-.524666-1.2173-.78733307-2.5173-.78799973-3.9-.00066667-1.38267.26199973-2.68267.78799973-3.9.525999-1.21733 1.238329-2.27567 2.136999-3.175s1.957-1.61167 3.175-2.137c1.218-.525333 2.518-.788 3.9-.788s2.682.262667 3.9.788c1.218.52533 2.2763 1.23767 3.175 2.137s1.6113 1.95767 2.138 3.175.789 2.51733.787 3.9c-.002 1.3827-.2647 2.6827-.788 3.9s-1.2357 2.2757-2.137 3.175-1.9597 1.612-3.175 2.138-2.5153.7883-3.9.787z" fill="#a86431"/></svg>