<svg fill="none" height="54" viewBox="0 0 190 54" width="190" xmlns="http://www.w3.org/2000/svg" xmlns:xlink="http://www.w3.org/1999/xlink"><linearGradient id="a" gradientUnits="userSpaceOnUse" x1="12.9014" x2="12.9014" y1="8.56158" y2="45.0342"><stop offset="0" stop-color="#e6ac57"/><stop offset=".504808" stop-color="#ce7a3b"/><stop offset="1" stop-color="#e6ac57"/></linearGradient><clipPath id="b"><rect height="45.0773" rx="3.63871" width="50.7871" x="4.28125" y="4.28076"/></clipPath><rect fill="#102122" height="53.639" rx="7.06338" width="190"/><g clip-path="url(#b)"><rect fill="#fff6d7" height="45.0773" rx="3.63871" width="50.7871" x="4.28125" y="4.28076"/><path clip-rule="evenodd" d="m30.2876 8.64655c-.4493.24502-.867.52848-1.248.85742-.6079.52473-1.0891 1.14833-1.462 1.85253h-.7539c-1.7425.0001-2.9395.344-3.6211 1.0088-.6805.6639-1.0311 1.8625-1.0312 3.6191v6.8887c0 1.1679-.1969 2.0796-.5957 2.7285-.3907.6355-1.0009 1.0042-1.8096 1.1153v.289c.8086.1111 1.4188.4809 1.8096 1.1162.3989.6489.5956 1.5607.5957 2.7285v6.8887c0 1.7332.351 2.9236 1.0322 3.6016.6816.6778 1.8779 1.0262 3.6201 1.0263h.6621c.3837.776.8965 1.457 1.5538 2.0245.2949.2545.612.4816.9482.6855h-3.1641c-2.6331-.0001-4.569-.5642-5.7812-1.71-1.2135-1.1475-1.8125-3.0301-1.8125-5.6279v-6.7803c-.0001-.8767-.246-1.531-.7197-1.9677-.4755-.4379-1.1762-.666-2.1104-.666h-1.5439v-2.9268h1.5439c.9344 0 1.6349-.2279 2.1104-.666.4738-.4368.7197-1.0909.7197-1.9678v-6.7803c.0001-2.5977.5988-4.4805 1.8125-5.6279 1.2122-1.14573 3.1481-1.70985 5.7812-1.70995zm-9.4023 1.99125c-.0242.0262-.0468.054-.0704.081.0374-.0428.0755-.0849.1143-.126zm.2168-.2198-.0723.0733c.0242-.024.0475-.0499.0723-.0733z" fill="#78a3a5" fill-rule="evenodd"/><path d="m40.4153 43.3056c-1.3554-1.124-2.0308-2.9777-2.0308-5.5657v-4.9674c0-.9428-.2493-1.6634-.7434-2.1574s-1.2149-.7433-2.1578-.7433h-1.4506v-6.019h1.4506c.9429 0 1.6637-.2492 2.1578-.7433.4941-.494.7434-1.2146.7434-2.1574v-4.9674c0-2.588.6754-4.4417 2.0308-5.5657 1.3554-1.12402 3.5313-1.68603 6.5277-1.68603h3.8441v6.01893h-2.1759c-1.088 0-1.845.2357-2.2666.7071-.4216.4713-.6346 1.3234-.6346 2.5562v4.1335c0 1.5455-.2493 2.6605-.7434 3.3358s-1.4098 1.0651-2.738 1.1603v.4351c1.3282.0951 2.2439.4849 2.738 1.1602.4941.6754.7434 1.7903.7434 3.3358v4.1335c0 1.2102.2176 2.0532.6528 2.5381.4351.485 1.1831.7252 2.2484.7252h2.1759v6.0189h-3.8441c-2.9964 0-5.1723-.562-6.5277-1.686z" fill="#08484b"/><path d="m40.311 8.73297c-.2719.16654-.5295.34692-.7695.5459-1.0133.84033-1.6879 1.95013-2.083 3.26073h-1.0693c-1.5231 0-2.5935.3134-3.21.9434-.6163.63-.9248 1.7274-.9248 3.2998v5.873c0 1.2554-.2037 2.2126-.6162 2.8653-.4126.6524-1.111 1.0288-2.1035 1.124v.4346c.9926.0951 1.691.4714 2.1035 1.124s.6162 1.6089.6162 2.8642v5.8741c0 1.5725.3084 2.6698.9248 3.2998.6165.6299 1.6869.9423 3.21.9423h1.125c.4013 1.2364 1.0584 2.2873 2.0273 3.0909.3239.2686.6778.5068 1.0596.7168h-4.7198c-2.6336-.0001-4.619-.5761-5.9472-1.7227-1.3282-1.1467-1.9951-2.9913-1.9951-5.5293v-6.1279c-.0001-.8928-.2491-1.5775-.7432-2.0489-.4941-.4711-1.2155-.707-2.1582-.707h-1.4502v-3.9883h1.4502c.9428 0 1.6596-.2357 2.1582-.707.4984-.4713.7431-1.1553.7432-2.0478v-6.128c0-2.538.667-4.3826 1.9951-5.5293 1.3282-1.14663 3.3136-1.72261 5.9472-1.72263z" fill="#4c8486"/><g fill="url(#a)"><path d="m18.5806 42.295c.3442.7572.8017 1.4247 1.3916 1.9824.3008.2843.63.5359.9843.7568h-16.67574v-2.7392z"/><path d="m17.7358 38.0137c.0214 1.0425.1371 2.0199.3672 2.9112h-13.82224v-2.9112z"/><path d="m17.73 36.6436h-13.44924v-2.7392h13.44924z"/><path d="m16.5806 29.6231c.5101.0419.7547.1832.8711.29.1103.1018.2782.3386.2783.961v1.6601h-13.44924v-2.9111z"/><path d="m13.356 28.2403c0 .0042.0009.0085.0009.0127h-9.07614v-2.9102h9.07524z"/><path d="m17.73 22.6788c0 .6225-.168.8592-.2783.9609-.1377.1267-.4583.333-1.1846.333h-11.98634v-2.9111h13.44924z"/><path d="m17.73 19.6915h-13.44924v-2.8252h13.44924z"/><path d="m18.0923 12.6719c-.2197.8674-.3332 1.8155-.3565 2.8252h-13.45504v-2.8252z"/><path d="m20.8911 8.56158c-.3292.21072-.6369.44731-.9189.71387-.6014.56846-1.0657 1.25095-1.4121 2.02635h-14.27934v-2.74022z"/><path d="m21.5161 9.89264-.0644.04492c.0231-.0166.0468-.03352.0703-.0498-.0019.00136-.004.00357-.0059.00488z"/></g></g><g fill="#fff6d7"><path d="m138.986 39.9754c2.758.2038 4.932.3057 6.521.3057.204 0 .374-.0679.509-.2038.136-.1358.204-.3056.204-.5094v-.7132h-4.381c-.924 0-1.664-.2785-2.221-.8354-.557-.557-.835-1.2974-.835-2.2211v-.7132c0-.9237.278-1.6641.835-2.2211.557-.5569 1.297-.8354 2.221-.8354h6.928v2.649h-5.705c-.204 0-.374.0679-.51.2037-.136.1359-.203.3057-.203.5095 0 .2037.067.3735.203.5094.136.1358.306.2038.51.2038h3.668c.923 0 1.664.2784 2.221.8354s.835 1.2973.835 2.2211v.815c0 .9238-.278 1.6641-.835 2.2211s-1.298.8355-2.221.8355c-2.405 0-4.986-.1359-7.744-.4076z"/><path d="m127.74 31.8248c1.1 0 1.949.4076 2.547 1.2226.625-.4211 1.297-.7267 2.017-.9169.734-.2038 1.386-.3057 1.956-.3057h.204c.924 0 1.664.2785 2.221.8355.557.5569.836 1.2973.836 2.221v7.947h-3.566v-7.3357c0-.2037-.068-.3735-.204-.5094-.136-.1358-.306-.2037-.509-.2037h-.102c-.612 0-1.393.1358-2.344.4075v7.6413h-3.566v-7.3357c0-.2037-.067-.3735-.203-.5094-.136-.1358-.306-.2037-.51-.2037h-.102c-.611 0-1.392.1358-2.343.4075v7.6413h-3.566v-10.7997h3.159l.203 1.0188c.639-.4211 1.291-.7267 1.956-.9169.68-.2038 1.25-.3057 1.712-.3057z"/><path d="m88.5267 39.9754c2.7577.2038 4.9312.3057 6.5206.3057.2037 0 .3736-.0679.5094-.2038.1358-.1358.2038-.3056.2038-.5094v-.7132h-4.381c-.9238 0-1.6641-.2785-2.2211-.8354-.557-.557-.8355-1.2974-.8355-2.2211v-.7132c0-.9237.2785-1.6641.8355-2.2211.557-.5569 1.2973-.8354 2.2211-.8354h6.9281v2.649h-5.7055c-.2038 0-.3736.0679-.5095.2037-.1358.1359-.2037.3057-.2037.5095 0 .2037.0679.3735.2037.5094.1359.1358.3057.2038.5095.2038h3.6678c.9237 0 1.6641.2784 2.2211.8354.5569.557.8354 1.2973.8354 2.2211v.815c0 .9238-.2785 1.6641-.8354 2.2211-.557.557-1.2974.8355-2.2211.8355-2.4045 0-4.9855-.1359-7.7432-.4076z"/><path d="m80.0374 46.496c-.72 0-1.603-.0679-2.649-.2038v-2.6489h1.8339c.5162 0 .8491-.1427.9985-.428.163-.2852.1358-.686-.0815-1.2022l-4.1773-9.9846h3.7697l2.5471 6.9281 2.1396-6.9281h3.7697l-4.0754 11.2072c-.3939 1.0732-.9033 1.8815-1.5282 2.4249-.6249.5569-1.4739.8354-2.5471.8354z"/><path d="m64.0373 40.2159c.3203 0 7.2125-.0401 7.5598-.0368.3125 0 .557-.0883.7336-.2649.1902-.1902.2853-.4415.2853-.7539v-1.8339h-4.6867c-1.4264 0-2.4656-.3193-3.1176-.9577-.6385-.6521-.9577-1.6913-.9577-3.1177v-.6113c0-1.4264.3192-2.4588.9577-3.0973.652-.652 1.6912-.978 3.1176-.978h7.1523v2.8527h-6.3372c-.8151 0-1.2226.4075-1.2226 1.2226v.4076c0 .815.4075 1.2226 1.2226 1.2226h3.6678c1.3313 0 2.3094.3124 2.9343.9373.6248.6249.9373 1.603.9373 2.9343v1.0188c0 1.3313-.3125 2.3094-.9373 2.9342-.6249.6249-1.603.9374-2.9343.9374-.6928 0-1.3765 0-2.1898 0-1.4127 0-5.3511 0-6.1851 0z"/><path d="m178.281 25.1054-.204-1.0188c-.638.4211-1.297.7336-1.976.9373-.666.1902-1.23.2853-1.691.2853h-.917c-.924 0-1.665-.2785-2.222-.8354-.556-.557-.835-1.2974-.835-2.2211v-4.6867c0-1.0188.285-1.8135.856-2.384.584-.5842 1.385-.8762 2.404-.8762h4.178v-3.4641h3.566v14.2637zm-2.853-2.7508c.72 0 1.535-.1359 2.446-.4076v-4.8904h-3.057c-.543 0-.815.2717-.815.8151v3.7697c0 .2038.068.3736.204.5094.136.1359.305.2038.509.2038z"/><path d="m142.332 22.3547c.72 0 1.535-.1359 2.445-.4076v-7.6413h3.566v10.7997h-3.158l-.204-1.0188c-.638.4211-1.297.7336-1.976.9373-.666.1902-1.23.2853-1.692.2853h-.917c-.923 0-1.664-.2785-2.221-.8355-.557-.5569-.835-1.2973-.835-2.221v-7.947h3.566v7.3357c0 .2037.068.3736.204.5094.135.1358.305.2038.509.2038z"/><path d="m132.409 17.566c0-.2037-.068-.3735-.204-.5094-.136-.1358-.306-.2037-.51-.2037h-.509c-.57 0-1.066.0271-1.487.0815-.408.0543-.727.0951-.958.1222v5.298h2.853c.543 0 .815-.2717.815-.8151zm-3.668-3.0565c1.318-.2717 2.472-.4075 3.464-.4075h.713c.924 0 1.664.2785 2.221.8354.557.557.836 1.2974.836 2.2211v4.6867c0 1.0188-.292 1.8203-.877 2.4044-.57.5706-1.365.8558-2.384.8558h-7.539v-14.2637h3.566z"/><path d="m123.774 14.7134v10.3921h-3.566v-7.6412h-1.529v-2.7509zm-3.566-4.0754h3.566v2.8528h-3.566z"/><path d="m115.576 17.2606c-.856 0-1.739.2037-2.649.6113v7.2337h-3.566v-10.7997h3.159l.203 1.3245c1.169-1.0188 2.391-1.5282 3.668-1.5282h.917v3.1584z"/><path d="m107.969 25.1056c-1.318.1359-2.608.2038-3.872.2038-.923 0-1.664-.2785-2.221-.8354-.557-.557-.835-1.2974-.835-2.2211v-5.1961h-1.2227v-2.7508h1.2227l.407-2.4453h3.159v2.4453h2.547v2.7508h-2.547v4.6867c0 .2037.068.3736.204.5094.135.1358.305.2038.509.2038h2.649z"/><path d="m93.4773 17.0568c-.72 0-1.5351.1358-2.4453.4075v7.6413h-3.5659v-10.7997h3.1584l.2038 1.0189c.6385-.4212 1.2905-.7268 1.9561-.917.6793-.2038 1.2498-.3056 1.7117-.3056h.917c.9237 0 1.6641.2784 2.221.8354.557.557.8355 1.2973.8355 2.2211v7.9469h-3.566v-7.3356c0-.2038-.0679-.3736-.2037-.5094-.1359-.1359-.3057-.2038-.5095-.2038z"/><path d="m112.936 34.3719c-.543 0-.815.2717-.815.8151v1.1207h3.464v-1.1207c0-.5434-.271-.8151-.815-.8151zm5.808 8.2526c-2.622.2717-4.999.4076-7.132.4076-.924 0-1.664-.2785-2.221-.8355s-.836-1.2973-.836-2.2211v-4.8904c0-1.0188.286-1.8135.856-2.3841.584-.5841 1.386-.8762 2.405-.8762h4.075c1.019 0 1.813.2921 2.384.8762.584.5706.876 1.3653.876 2.3841v3.7697h-7.03v.8151c0 .2037.068.3736.204.5094s.306.2038.509.2038c1.345 0 3.315-.1019 5.91-.3057z"/><path d="m104.516 32.0286h2.547v2.7509h-2.547v4.6866c0 .2038.068.3736.204.5094.135.1359.305.2038.509.2038h1.96c.038 1.0571.37 2.0256 1.064 2.8069-1.791.0304-3.649.0459-4.246.0459-.924 0-1.665-.2785-2.222-.8355-.557-.5569-.835-1.2973-.835-2.2211v-5.196h-1.2226v-2.7509h1.2226l.408-2.4452h3.158z"/><path d="m162.813 16.6493c-.543 0-.815.2717-.815.815v1.1208h3.464v-1.1208c0-.5433-.271-.815-.815-.815zm5.808 8.2526c-2.622.2716-4.999.4075-7.132.4075-.924 0-1.664-.2785-2.221-.8355-.557-.5569-.836-1.2973-.836-2.221v-4.8905c0-1.0188.286-1.8135.856-2.384.584-.5842 1.386-.8762 2.405-.8762h4.075c1.019 0 1.813.292 2.384.8762.584.5705.876 1.3652.876 2.384v3.7698h-7.03v.815c0 .2038.068.3736.204.5094.136.1359.306.2038.509.2038 1.345 0 3.315-.1019 5.91-.3056z"/><path d="m154.337 14.3059h2.548v2.751h-2.548v4.6866c0 .2037.068.3735.204.5094.136.1358.306.2037.51.2037h2.015c.037 1.0531.367 2.0183 1.056 2.7981-1.71.0363-3.64.0547-4.294.0547-.924 0-1.664-.2785-2.221-.8354-.557-.557-.835-1.2974-.835-2.2211v-5.196h-1.223v-2.751h1.223l.407-2.4452h3.158z"/><path d="m86.0201 22.2665c0 1.0188-.292 1.8203-.8762 2.4045-.5705.5705-1.3652.8558-2.3841.8558h-4.6866c-1.0189 0-1.8203-.2853-2.4045-.8558-.5705-.5842-.8558-1.3857-.8558-2.4045v-4.6867c0-1.0188.2853-1.8135.8558-2.384.5842-.5842 1.3856-.8763 2.4045-.8763h4.6866c1.0189 0 1.8136.2921 2.3841.8763.5842.5705.8762 1.3652.8762 2.384zm-3.5659-4.381c0-.5434-.2717-.8151-.8151-.8151h-2.4452c-.5434 0-.8151.2717-.8151.8151v4.0753c0 .5434.2717.8151.8151.8151h2.4452c.5434 0 .8151-.2717.8151-.8151z"/><path d="m73.5286 13.6945h-5.0083c-.815 0-1.2226.4075-1.2226 1.2225v6.5206c0 .3125.0883.5638.2649.754.1901.1766.4279.2649.7132.2649h.9373c.3396-.0136.6928-.0272 1.0596-.0408s.7336-.0272 1.1004-.0407c.3804-.0136.8626-.0408 1.4467-.0816.1929-.0131.4006-.0269.6232-.0414v.0145c0 .993.2198 1.9233.7263 2.7102-2.643.2213-4.8657.3326-6.6679.3326-1.3312 0-2.3093-.3125-2.9342-.9374s-.9373-1.603-.9373-2.9343v-6.5206c0-1.4263.3192-2.4588.9577-3.0972.652-.6521 1.6912-.9781 3.1176-.9781h5.8234z"/></g></svg>