<svg width="190" height="54" viewBox="0 0 190 54" fill="none" xmlns="http://www.w3.org/2000/svg">
<rect width="190" height="53.639" rx="7.06338" fill="#102122"/>
<g clip-path="url(#clip0_4688_158)">
<rect x="4.28125" y="4.28076" width="50.7871" height="45.0773" rx="3.63871" fill="#FFF6D7"/>
<path fill-rule="evenodd" clip-rule="evenodd" d="M30.2876 8.64655C29.8383 8.89157 29.4206 9.17503 29.0396 9.50397C28.4317 10.0287 27.9505 10.6523 27.5776 11.3565H26.8237C25.0812 11.3566 23.8842 11.7005 23.2026 12.3653C22.5221 13.0292 22.1715 14.2278 22.1714 15.9844V22.8731C22.1714 24.041 21.9745 24.9527 21.5757 25.6016C21.185 26.2371 20.5748 26.6058 19.7661 26.7169V27.0059C20.5747 27.117 21.1849 27.4868 21.5757 28.1221C21.9746 28.771 22.1713 29.6828 22.1714 30.8506V37.7393C22.1714 39.4725 22.5224 40.6629 23.2036 41.3409C23.8852 42.0187 25.0815 42.3671 26.8237 42.3672H27.4858C27.8695 43.1432 28.3823 43.8242 29.0396 44.3917C29.3345 44.6462 29.6516 44.8733 29.9878 45.0772H26.8237C24.1906 45.0771 22.2547 44.513 21.0425 43.3672C19.829 42.2197 19.23 40.3371 19.23 37.7393V30.959C19.2299 30.0823 18.984 29.428 18.5103 28.9913C18.0348 28.5534 17.3341 28.3253 16.3999 28.3253H14.856V25.3985H16.3999C17.3343 25.3985 18.0348 25.1706 18.5103 24.7325C18.9841 24.2957 19.23 23.6416 19.23 22.7647V15.9844C19.2301 13.3867 19.8288 11.5039 21.0425 10.3565C22.2547 9.21077 24.1906 8.64665 26.8237 8.64655H30.2876ZM20.8853 10.6378C20.8611 10.664 20.8385 10.6918 20.8149 10.7188C20.8523 10.676 20.8904 10.6339 20.9292 10.5928L20.8853 10.6378ZM21.1021 10.418L21.0298 10.4913C21.054 10.4673 21.0773 10.4414 21.1021 10.418Z" fill="#78A3A5"/>
<path d="M40.4153 43.3056C39.0599 42.1816 38.3845 40.3279 38.3845 37.7399V32.7725C38.3845 31.8297 38.1352 31.1091 37.6411 30.6151C37.147 30.1211 36.4262 29.8718 35.4833 29.8718H34.0327V23.8528H35.4833C36.4262 23.8528 37.147 23.6036 37.6411 23.1095C38.1352 22.6155 38.3845 21.8949 38.3845 20.9521V15.9847C38.3845 13.3967 39.0599 11.543 40.4153 10.419C41.7707 9.29498 43.9466 8.73297 46.943 8.73297H50.7871V14.7519H48.6112C47.5232 14.7519 46.7662 14.9876 46.3446 15.459C45.923 15.9303 45.71 16.7824 45.71 18.0152V22.1487C45.71 23.6942 45.4607 24.8092 44.9666 25.4845C44.4725 26.1598 43.5568 26.5496 42.2286 26.6448V27.0799C43.5568 27.175 44.4725 27.5648 44.9666 28.2401C45.4607 28.9155 45.71 30.0304 45.71 31.5759V35.7094C45.71 36.9196 45.9276 37.7626 46.3628 38.2475C46.7979 38.7325 47.5459 38.9727 48.6112 38.9727H50.7871V44.9916H46.943C43.9466 44.9916 41.7707 44.4296 40.4153 43.3056Z" fill="#08484B"/>
<path d="M40.311 8.73297C40.0391 8.89951 39.7815 9.07989 39.5415 9.27887C38.5282 10.1192 37.8536 11.229 37.4585 12.5396H36.3892C34.8661 12.5396 33.7957 12.853 33.1792 13.483C32.5629 14.113 32.2544 15.2104 32.2544 16.7828V22.6558C32.2544 23.9112 32.0507 24.8684 31.6382 25.5211C31.2256 26.1735 30.5272 26.5499 29.5347 26.6451V27.0797C30.5273 27.1748 31.2257 27.5511 31.6382 28.2037C32.0507 28.8563 32.2544 29.8126 32.2544 31.0679V36.942C32.2544 38.5145 32.5628 39.6118 33.1792 40.2418C33.7957 40.8717 34.8661 41.1841 36.3892 41.1841H37.5142C37.9155 42.4205 38.5726 43.4714 39.5415 44.275C39.8654 44.5436 40.2193 44.7818 40.6011 44.9918H35.8813C33.2477 44.9917 31.2623 44.4157 29.9341 43.2691C28.6059 42.1224 27.939 40.2778 27.939 37.7398V31.6119C27.9389 30.7191 27.6899 30.0344 27.1958 29.563C26.7017 29.0919 25.9803 28.856 25.0376 28.856H23.5874V24.8677H25.0376C25.9804 24.8677 26.6972 24.632 27.1958 24.1607C27.6942 23.6894 27.9389 23.0054 27.939 22.1129V15.9849C27.939 13.4469 28.606 11.6023 29.9341 10.4556C31.2623 9.30897 33.2477 8.73299 35.8813 8.73297H40.311Z" fill="#4C8486"/>
<path d="M18.5806 42.295C18.9248 43.0522 19.3823 43.7197 19.9722 44.2774C20.273 44.5617 20.6022 44.8133 20.9565 45.0342H4.28076V42.295H18.5806Z" fill="url(#paint0_linear_4688_158)"/>
<path d="M17.7358 38.0137C17.7572 39.0562 17.8729 40.0336 18.103 40.9249H4.28076V38.0137H17.7358Z" fill="url(#paint1_linear_4688_158)"/>
<path d="M17.73 36.6436H4.28076V33.9044H17.73V36.6436Z" fill="url(#paint2_linear_4688_158)"/>
<path d="M16.5806 29.6231C17.0907 29.665 17.3353 29.8063 17.4517 29.9131C17.562 30.0149 17.7299 30.2517 17.73 30.8741V32.5342H4.28076V29.6231H16.5806Z" fill="url(#paint3_linear_4688_158)"/>
<path d="M13.356 28.2403C13.356 28.2445 13.3569 28.2488 13.3569 28.253H4.28076V25.3428H13.356V28.2403Z" fill="url(#paint4_linear_4688_158)"/>
<path d="M17.73 22.6788C17.73 23.3013 17.562 23.538 17.4517 23.6397C17.314 23.7664 16.9934 23.9727 16.2671 23.9727H4.28076V21.0616H17.73V22.6788Z" fill="url(#paint5_linear_4688_158)"/>
<path d="M17.73 19.6915H4.28076V16.8663H17.73V19.6915Z" fill="url(#paint6_linear_4688_158)"/>
<path d="M18.0923 12.6719C17.8726 13.5393 17.7591 14.4874 17.7358 15.4971H4.28076V12.6719H18.0923Z" fill="url(#paint7_linear_4688_158)"/>
<path d="M20.8911 8.56158C20.5619 8.7723 20.2542 9.00889 19.9722 9.27545C19.3708 9.84391 18.9065 10.5264 18.5601 11.3018H4.28076V8.56158H20.8911Z" fill="url(#paint8_linear_4688_158)"/>
<path d="M21.5161 9.89264L21.4517 9.93756C21.4748 9.92096 21.4985 9.90404 21.522 9.88776C21.5201 9.88912 21.518 9.89133 21.5161 9.89264Z" fill="url(#paint9_linear_4688_158)"/>
</g>
<path d="M138.986 39.9754C141.744 40.1792 143.918 40.2811 145.507 40.2811C145.711 40.2811 145.881 40.2132 146.016 40.0773C146.152 39.9415 146.22 39.7717 146.22 39.5679V38.8547H141.839C140.915 38.8547 140.175 38.5762 139.618 38.0193C139.061 37.4623 138.783 36.7219 138.783 35.7982V35.085C138.783 34.1613 139.061 33.4209 139.618 32.8639C140.175 32.307 140.915 32.0285 141.839 32.0285H148.767V34.6775H143.062C142.858 34.6775 142.688 34.7454 142.552 34.8812C142.416 35.0171 142.349 35.1869 142.349 35.3907C142.349 35.5944 142.416 35.7642 142.552 35.9001C142.688 36.0359 142.858 36.1039 143.062 36.1039H146.73C147.653 36.1039 148.394 36.3823 148.951 36.9393C149.508 37.4963 149.786 38.2366 149.786 39.1604V39.9754C149.786 40.8992 149.508 41.6395 148.951 42.1965C148.394 42.7535 147.653 43.032 146.73 43.032C144.325 43.032 141.744 42.8961 138.986 42.6244V39.9754Z" fill="#FFF6D7"/>
<path d="M127.74 31.8248C128.84 31.8248 129.689 32.2324 130.287 33.0474C130.912 32.6263 131.584 32.3207 132.304 32.1305C133.038 31.9267 133.69 31.8248 134.26 31.8248H134.464C135.388 31.8248 136.128 32.1033 136.685 32.6603C137.242 33.2172 137.521 33.9576 137.521 34.8813V42.8283H133.955V35.4926C133.955 35.2889 133.887 35.1191 133.751 34.9832C133.615 34.8474 133.445 34.7795 133.242 34.7795H133.14C132.528 34.7795 131.747 34.9153 130.796 35.187V42.8283H127.23V35.4926C127.23 35.2889 127.163 35.1191 127.027 34.9832C126.891 34.8474 126.721 34.7795 126.517 34.7795H126.415C125.804 34.7795 125.023 34.9153 124.072 35.187V42.8283H120.506V32.0286H123.665L123.868 33.0474C124.507 32.6263 125.159 32.3207 125.824 32.1305C126.504 31.9267 127.074 31.8248 127.536 31.8248H127.74Z" fill="#FFF6D7"/>
<path d="M88.5267 39.9754C91.2844 40.1792 93.4579 40.2811 95.0473 40.2811C95.251 40.2811 95.4209 40.2132 95.5567 40.0773C95.6925 39.9415 95.7605 39.7717 95.7605 39.5679V38.8547H91.3795C90.4557 38.8547 89.7154 38.5762 89.1584 38.0193C88.6014 37.4623 88.3229 36.7219 88.3229 35.7982V35.085C88.3229 34.1613 88.6014 33.4209 89.1584 32.8639C89.7154 32.307 90.4557 32.0285 91.3795 32.0285H98.3076V34.6775H92.6021C92.3983 34.6775 92.2285 34.7454 92.0926 34.8812C91.9568 35.0171 91.8889 35.1869 91.8889 35.3907C91.8889 35.5944 91.9568 35.7642 92.0926 35.9001C92.2285 36.0359 92.3983 36.1039 92.6021 36.1039H96.2699C97.1936 36.1039 97.934 36.3823 98.491 36.9393C99.0479 37.4963 99.3264 38.2366 99.3264 39.1604V39.9754C99.3264 40.8992 99.0479 41.6395 98.491 42.1965C97.934 42.7535 97.1936 43.032 96.2699 43.032C93.8654 43.032 91.2844 42.8961 88.5267 42.6244V39.9754Z" fill="#FFF6D7"/>
<path d="M80.0374 46.496C79.3174 46.496 78.4344 46.4281 77.3884 46.2922V43.6433H79.2223C79.7385 43.6433 80.0714 43.5006 80.2208 43.2153C80.3838 42.9301 80.3566 42.5293 80.1393 42.0131L75.962 32.0285H79.7317L82.2788 38.9566L84.4184 32.0285H88.1881L84.1127 43.2357C83.7188 44.3089 83.2094 45.1172 82.5845 45.6606C81.9596 46.2175 81.1106 46.496 80.0374 46.496Z" fill="#FFF6D7"/>
<path d="M64.0373 40.2159C64.3576 40.2159 71.2498 40.1758 71.5971 40.1791C71.9096 40.1791 72.1541 40.0908 72.3307 39.9142C72.5209 39.724 72.616 39.4727 72.616 39.1603V37.3264H67.9293C66.5029 37.3264 65.4637 37.0071 64.8117 36.3687C64.1732 35.7166 63.854 34.6774 63.854 33.251V32.6397C63.854 31.2133 64.1732 30.1809 64.8117 29.5424C65.4637 28.8904 66.5029 28.5644 67.9293 28.5644H75.0816V31.4171H68.7444C67.9293 31.4171 67.5218 31.8246 67.5218 32.6397V33.0473C67.5218 33.8623 67.9293 34.2699 68.7444 34.2699H72.4122C73.7435 34.2699 74.7216 34.5823 75.3465 35.2072C75.9713 35.8321 76.2838 36.8102 76.2838 38.1415V39.1603C76.2838 40.4916 75.9713 41.4697 75.3465 42.0945C74.7216 42.7194 73.7435 43.0319 72.4122 43.0319C71.7194 43.0319 71.0357 43.0319 70.2224 43.0319C68.8097 43.0319 64.8713 43.0319 64.0373 43.0319V40.2159Z" fill="#FFF6D7"/>
<path d="M178.281 25.1054L178.077 24.0866C177.439 24.5077 176.78 24.8202 176.101 25.0239C175.435 25.2141 174.871 25.3092 174.41 25.3092H173.493C172.569 25.3092 171.828 25.0307 171.271 24.4738C170.715 23.9168 170.436 23.1764 170.436 22.2527V17.566C170.436 16.5472 170.721 15.7525 171.292 15.182C171.876 14.5978 172.677 14.3058 173.696 14.3058H177.874V10.8417H181.44V25.1054H178.281ZM175.428 22.3546C176.148 22.3546 176.963 22.2187 177.874 21.947V17.0566H174.817C174.274 17.0566 174.002 17.3283 174.002 17.8717V21.6414C174.002 21.8452 174.07 22.015 174.206 22.1508C174.342 22.2867 174.511 22.3546 174.715 22.3546H175.428Z" fill="#FFF6D7"/>
<path d="M142.332 22.3547C143.052 22.3547 143.867 22.2188 144.777 21.9471V14.3058H148.343V25.1055H145.185L144.981 24.0867C144.343 24.5078 143.684 24.8203 143.005 25.024C142.339 25.2142 141.775 25.3093 141.313 25.3093H140.396C139.473 25.3093 138.732 25.0308 138.175 24.4738C137.618 23.9169 137.34 23.1765 137.34 22.2528V14.3058H140.906V21.6415C140.906 21.8452 140.974 22.0151 141.11 22.1509C141.245 22.2867 141.415 22.3547 141.619 22.3547H142.332Z" fill="#FFF6D7"/>
<path d="M132.409 17.566C132.409 17.3623 132.341 17.1925 132.205 17.0566C132.069 16.9208 131.899 16.8529 131.695 16.8529H131.186C130.616 16.8529 130.12 16.88 129.699 16.9344C129.291 16.9887 128.972 17.0295 128.741 17.0566V22.3546H131.594C132.137 22.3546 132.409 22.0829 132.409 21.5395V17.566ZM128.741 14.5095C130.059 14.2378 131.213 14.102 132.205 14.102H132.918C133.842 14.102 134.582 14.3805 135.139 14.9374C135.696 15.4944 135.975 16.2348 135.975 17.1585V21.8452C135.975 22.864 135.683 23.6655 135.098 24.2496C134.528 24.8202 133.733 25.1054 132.714 25.1054H125.175V10.8417H128.741V14.5095Z" fill="#FFF6D7"/>
<path d="M123.774 14.7134V25.1055H120.208V17.4643H118.679V14.7134H123.774ZM120.208 10.638H123.774V13.4908H120.208V10.638Z" fill="#FFF6D7"/>
<path d="M115.576 17.2606C114.72 17.2606 113.837 17.4643 112.927 17.8719V25.1056H109.361V14.3059H112.52L112.723 15.6304C113.892 14.6116 115.114 14.1022 116.391 14.1022H117.308V17.2606H115.576Z" fill="#FFF6D7"/>
<path d="M107.969 25.1056C106.651 25.2415 105.361 25.3094 104.097 25.3094C103.174 25.3094 102.433 25.0309 101.876 24.474C101.319 23.917 101.041 23.1766 101.041 22.2529V17.0568H99.8183V14.306H101.041L101.448 11.8607H104.607V14.306H107.154V17.0568H104.607V21.7435C104.607 21.9472 104.675 22.1171 104.811 22.2529C104.946 22.3887 105.116 22.4567 105.32 22.4567H107.969V25.1056Z" fill="#FFF6D7"/>
<path d="M93.4773 17.0568C92.7573 17.0568 91.9422 17.1926 91.032 17.4643V25.1056H87.4661V14.3059H90.6245L90.8283 15.3248C91.4668 14.9036 92.1188 14.598 92.7844 14.4078C93.4637 14.204 94.0342 14.1022 94.4961 14.1022H95.4131C96.3368 14.1022 97.0772 14.3806 97.6341 14.9376C98.1911 15.4946 98.4696 16.2349 98.4696 17.1587V25.1056H94.9036V17.77C94.9036 17.5662 94.8357 17.3964 94.6999 17.2606C94.564 17.1247 94.3942 17.0568 94.1904 17.0568H93.4773Z" fill="#FFF6D7"/>
<path d="M112.936 34.3719C112.393 34.3719 112.121 34.6436 112.121 35.187V36.3077H115.585V35.187C115.585 34.6436 115.314 34.3719 114.77 34.3719H112.936ZM118.744 42.6245C116.122 42.8962 113.745 43.0321 111.612 43.0321C110.688 43.0321 109.948 42.7536 109.391 42.1966C108.834 41.6396 108.555 40.8993 108.555 39.9755V35.0851C108.555 34.0663 108.841 33.2716 109.411 32.701C109.995 32.1169 110.797 31.8248 111.816 31.8248H115.891C116.91 31.8248 117.704 32.1169 118.275 32.701C118.859 33.2716 119.151 34.0663 119.151 35.0851V38.8548H112.121V39.6699C112.121 39.8736 112.189 40.0435 112.325 40.1793C112.461 40.3151 112.631 40.3831 112.834 40.3831C114.179 40.3831 116.149 40.2812 118.744 40.0774V42.6245Z" fill="#FFF6D7"/>
<path d="M104.516 32.0286H107.063V34.7795H104.516V39.4661C104.516 39.6699 104.584 39.8397 104.72 39.9755C104.855 40.1114 105.025 40.1793 105.229 40.1793H107.189C107.227 41.2364 107.559 42.2049 108.253 42.9862C106.462 43.0166 104.604 43.0321 104.007 43.0321C103.083 43.0321 102.342 42.7536 101.785 42.1966C101.228 41.6397 100.95 40.8993 100.95 39.9755V34.7795H99.7274V32.0286H100.95L101.358 29.5834H104.516V32.0286Z" fill="#FFF6D7"/>
<path d="M162.813 16.6493C162.27 16.6493 161.998 16.921 161.998 17.4643V18.5851H165.462V17.4643C165.462 16.921 165.191 16.6493 164.647 16.6493H162.813ZM168.621 24.9019C165.999 25.1735 163.622 25.3094 161.489 25.3094C160.565 25.3094 159.825 25.0309 159.268 24.4739C158.711 23.917 158.432 23.1766 158.432 22.2529V17.3624C158.432 16.3436 158.718 15.5489 159.288 14.9784C159.872 14.3942 160.674 14.1022 161.693 14.1022H165.768C166.787 14.1022 167.581 14.3942 168.152 14.9784C168.736 15.5489 169.028 16.3436 169.028 17.3624V21.1322H161.998V21.9472C161.998 22.151 162.066 22.3208 162.202 22.4566C162.338 22.5925 162.508 22.6604 162.711 22.6604C164.056 22.6604 166.026 22.5585 168.621 22.3548V24.9019Z" fill="#FFF6D7"/>
<path d="M154.337 14.3059H156.885V17.0569H154.337V21.7435C154.337 21.9472 154.405 22.117 154.541 22.2529C154.677 22.3887 154.847 22.4566 155.051 22.4566H157.066C157.103 23.5097 157.433 24.4749 158.122 25.2547C156.412 25.291 154.482 25.3094 153.828 25.3094C152.904 25.3094 152.164 25.0309 151.607 24.474C151.05 23.917 150.772 23.1766 150.772 22.2529V17.0569H149.549V14.3059H150.772L151.179 11.8607H154.337V14.3059Z" fill="#FFF6D7"/>
<path d="M86.0201 22.2665C86.0201 23.2853 85.7281 24.0868 85.1439 24.671C84.5734 25.2415 83.7787 25.5268 82.7598 25.5268H78.0732C77.0543 25.5268 76.2529 25.2415 75.6687 24.671C75.0982 24.0868 74.8129 23.2853 74.8129 22.2665V17.5798C74.8129 16.561 75.0982 15.7663 75.6687 15.1958C76.2529 14.6116 77.0543 14.3195 78.0732 14.3195H82.7598C83.7787 14.3195 84.5734 14.6116 85.1439 15.1958C85.7281 15.7663 86.0201 16.561 86.0201 17.5798V22.2665ZM82.4542 17.8855C82.4542 17.3421 82.1825 17.0704 81.6391 17.0704H79.1939C78.6505 17.0704 78.3788 17.3421 78.3788 17.8855V21.9608C78.3788 22.5042 78.6505 22.7759 79.1939 22.7759H81.6391C82.1825 22.7759 82.4542 22.5042 82.4542 21.9608V17.8855Z" fill="#FFF6D7"/>
<path d="M73.5286 13.6945H68.5203C67.7053 13.6945 67.2977 14.102 67.2977 14.917V21.4376C67.2977 21.7501 67.386 22.0014 67.5626 22.1916C67.7527 22.3682 67.9905 22.4565 68.2758 22.4565H69.2131C69.5527 22.4429 69.9059 22.4293 70.2727 22.4157C70.6395 22.4021 71.0063 22.3885 71.3731 22.375C71.7535 22.3614 72.2357 22.3342 72.8198 22.2934C73.0127 22.2803 73.2204 22.2665 73.443 22.252V22.2665C73.443 23.2595 73.6628 24.1898 74.1693 24.9767C71.5263 25.198 69.3036 25.3093 67.5014 25.3093C66.1702 25.3093 65.1921 24.9968 64.5672 24.3719C63.9423 23.747 63.6299 22.7689 63.6299 21.4376V14.917C63.6299 13.4907 63.9491 12.4582 64.5876 11.8198C65.2396 11.1677 66.2788 10.8417 67.7052 10.8417H73.5286V13.6945Z" fill="#FFF6D7"/>
<defs>
<linearGradient id="paint0_linear_4688_158" x1="12.9014" y1="8.56158" x2="12.9014" y2="45.0342" gradientUnits="userSpaceOnUse">
<stop stop-color="#E6AC57"/>
<stop offset="0.504808" stop-color="#CE7A3B"/>
<stop offset="1" stop-color="#E6AC57"/>
</linearGradient>
<linearGradient id="paint1_linear_4688_158" x1="12.9014" y1="8.56158" x2="12.9014" y2="45.0342" gradientUnits="userSpaceOnUse">
<stop stop-color="#E6AC57"/>
<stop offset="0.504808" stop-color="#CE7A3B"/>
<stop offset="1" stop-color="#E6AC57"/>
</linearGradient>
<linearGradient id="paint2_linear_4688_158" x1="12.9014" y1="8.56158" x2="12.9014" y2="45.0342" gradientUnits="userSpaceOnUse">
<stop stop-color="#E6AC57"/>
<stop offset="0.504808" stop-color="#CE7A3B"/>
<stop offset="1" stop-color="#E6AC57"/>
</linearGradient>
<linearGradient id="paint3_linear_4688_158" x1="12.9014" y1="8.56158" x2="12.9014" y2="45.0342" gradientUnits="userSpaceOnUse">
<stop stop-color="#E6AC57"/>
<stop offset="0.504808" stop-color="#CE7A3B"/>
<stop offset="1" stop-color="#E6AC57"/>
</linearGradient>
<linearGradient id="paint4_linear_4688_158" x1="12.9014" y1="8.56158" x2="12.9014" y2="45.0342" gradientUnits="userSpaceOnUse">
<stop stop-color="#E6AC57"/>
<stop offset="0.504808" stop-color="#CE7A3B"/>
<stop offset="1" stop-color="#E6AC57"/>
</linearGradient>
<linearGradient id="paint5_linear_4688_158" x1="12.9014" y1="8.56158" x2="12.9014" y2="45.0342" gradientUnits="userSpaceOnUse">
<stop stop-color="#E6AC57"/>
<stop offset="0.504808" stop-color="#CE7A3B"/>
<stop offset="1" stop-color="#E6AC57"/>
</linearGradient>
<linearGradient id="paint6_linear_4688_158" x1="12.9014" y1="8.56158" x2="12.9014" y2="45.0342" gradientUnits="userSpaceOnUse">
<stop stop-color="#E6AC57"/>
<stop offset="0.504808" stop-color="#CE7A3B"/>
<stop offset="1" stop-color="#E6AC57"/>
</linearGradient>
<linearGradient id="paint7_linear_4688_158" x1="12.9014" y1="8.56158" x2="12.9014" y2="45.0342" gradientUnits="userSpaceOnUse">
<stop stop-color="#E6AC57"/>
<stop offset="0.504808" stop-color="#CE7A3B"/>
<stop offset="1" stop-color="#E6AC57"/>
</linearGradient>
<linearGradient id="paint8_linear_4688_158" x1="12.9014" y1="8.56158" x2="12.9014" y2="45.0342" gradientUnits="userSpaceOnUse">
<stop stop-color="#E6AC57"/>
<stop offset="0.504808" stop-color="#CE7A3B"/>
<stop offset="1" stop-color="#E6AC57"/>
</linearGradient>
<linearGradient id="paint9_linear_4688_158" x1="12.9014" y1="8.56158" x2="12.9014" y2="45.0342" gradientUnits="userSpaceOnUse">
<stop stop-color="#E6AC57"/>
<stop offset="0.504808" stop-color="#CE7A3B"/>
<stop offset="1" stop-color="#E6AC57"/>
</linearGradient>
<clipPath id="clip0_4688_158">
<rect x="4.28125" y="4.28076" width="50.7871" height="45.0773" rx="3.63871" fill="white"/>
</clipPath>
</defs>
</svg>
