<svg height="84" viewBox="0 0 283 84" width="283" xmlns="http://www.w3.org/2000/svg"><g fill="none" fill-rule="evenodd"><path d="m92.2234637 46.9441341v25.9329609h8.7262573v-25.9329609h6.022346v-5.8379888h-6.022346v-1.905028c0-1.3109935.256049-2.243014.768156-2.7960894s1.362192-.8296089 2.550279-.8296089c1.106151 0 2.171317.0614519 3.195531.1843575v-6.5139664c-.737434-.0409686-1.49534-.0921785-2.273743-.1536313-.778402-.0614529-1.556793-.0921788-2.335195-.0921788-3.564264 0-6.2271797.9012945-7.9888272 2.7039106-1.7616476 1.8026161-2.6424581 4.1173043-2.6424581 6.9441341v2.4581006h-5.2234637v5.8379888zm15.8854753 3.9329609c.122905-2.0484274.635004-3.7485966 1.536312-5.1005587s2.048411-2.4376123 3.441341-3.2569832c1.392931-.819371 2.959954-1.403164 4.701117-1.7513967 1.741164-.3482326 3.492543-.5223463 5.25419-.5223463 1.597774 0 3.216007.1126618 4.854749.3379888s3.134071.6657323 4.486034 1.321229c1.351962.6554968 2.458096 1.5670333 3.318435 2.7346369.86034 1.1676036 1.290503 2.7141431 1.290503 4.6396648v16.5307263c0 1.4338991.081936 2.8063249.24581 4.1173184s.45065 2.2942239.860335 2.9497207h-8.849162c-.163874-.4916226-.29702-.9934798-.399441-1.5055866-.102421-.5121069-.174115-1.034448-.215084-1.5670391-1.39293 1.4338991-3.031648 2.4376135-4.916201 3.0111732-1.884553.5735596-3.810046.8603352-5.776536.8603352-1.515836 0-2.92923-.1843557-4.240224-.5530727-1.310993-.3687169-2.458095-.942268-3.44134-1.7206704-.983246-.7784024-1.751394-1.7616328-2.30447-2.9497206-.553075-1.1880879-.829609-2.6014816-.829609-4.2402235 0-1.8026161.317502-3.2877037.952514-4.4553073.635013-1.1676036 1.454371-2.099624 2.458101-2.7960893 1.003729-.6964654 2.150831-1.2188065 3.441341-1.5670392 1.290509-.3482326 2.591241-.6247662 3.902234-.8296089 1.310994-.2048427 2.601484-.3687145 3.871509-.4916201s2.396643-.3072613 3.379888-.5530726 1.761636-.6042807 2.335195-1.075419c.57356-.4711383.839852-1.1573512.798883-2.0586592 0-.9422766-.15363-1.6899414-.460894-2.2430168s-.716943-.9832387-1.22905-1.2905028-1.106142-.5121038-1.782123-.6145251c-.675981-.1024214-1.403162-.1536313-2.181564-.1536313-1.720679 0-3.072621.3687114-4.055866 1.1061452-.983245.7374339-1.556796 1.9664719-1.72067 3.6871509zm20.156424 6.4525139c-.368717.3277484-.829606.583798-1.382681.7681565-.553076.1843584-1.147111.3379882-1.782123.4608938-.635013.1229057-1.300742.2253255-1.997207.3072626s-1.39292.1843569-2.089386.3072626c-.655496.1229056-1.300741.2867773-1.935754.4916201-.635012.2048427-1.188079.4813763-1.659218.8296089-.471138.3482327-.850091.7886379-1.136871 1.3212291-.28678.5325911-.430168 1.208562-.430168 2.0279329 0 .7784024.143388 1.4338893.430168 1.9664805.28678.5325911.675975.9525124 1.167598 1.2597765.491622.3072641 1.065173.5223458 1.72067.6452514s1.331468.1843575 2.027933.1843575c1.720679 0 3.052137-.2867755 3.994413-.8603352.942277-.5735596 1.638732-1.2597725 2.089386-2.0586592.450654-.7988866.727187-1.6080033.829609-2.4273743.102421-.8193709.153631-1.4748579.153631-1.9664804zm12.444134-28.3296089h8.726257v23.5363128l11-11.4301675h10.324023l-11.983241 11.6759776 13.335196 20.0949721h-10.569833l-8.726257-14.1955308-3.379888 3.2569833v10.9385475h-8.726257zm44.768157 12.1061453h6.391061v5.8379888h-6.391061v15.7318436c0 1.4748677.245807 2.4580981.73743 2.9497206.491622.4916226 1.474853.7374302 2.94972.7374302.491623 0 .962754-.020484 1.413408-.0614525.450654-.0409686.880818-.1024205 1.290503-.1843576v6.7597766c-.737434.1229056-1.556792.2048415-2.4581.24581-.901309.0409686-1.782119.0614525-2.642459.0614525-1.351962 0-2.63221-.0921778-3.840782-.2765363-1.208572-.1843584-2.273738-.5428278-3.19553-1.075419-.921793-.5325911-1.648974-1.2904978-2.181565-2.273743-.532591-.9832451-.798882-2.273735-.798882-3.8715084v-18.7430167h-5.284917v-5.8379888h5.284917v-9.5251397h8.726257zm16.00838 15.9162011c0 1.2700249.122903 2.5093049.368715 3.7178771.245811 1.2085721.665732 2.2942223 1.259776 3.2569832s1.382677 1.7309096 2.365922 2.3044693c.983245.5735596 2.212283.8603352 3.687151.8603352 1.474867 0 2.714147-.2867756 3.717877-.8603352 1.003729-.5735597 1.802604-1.3417084 2.396648-2.3044693s1.013965-2.0484111 1.259776-3.2569832c.245812-1.2085722.368716-2.4478522.368716-3.7178771 0-1.270025-.122904-2.519547-.368716-3.7486034-.245811-1.2290564-.665732-2.3147066-1.259776-3.2569832s-1.392919-1.7104254-2.396648-2.3044693c-1.00373-.5940439-2.24301-.8910614-3.717877-.8910614-1.474868 0-2.703906.2970175-3.687151.8910614s-1.771878 1.3621927-2.365922 2.3044693-1.013965 2.0279268-1.259776 3.2569832c-.245812 1.2290564-.368715 2.4785784-.368715 3.7486034zm-8.726257 0c0-2.54005.389195-4.8444962 1.167597-6.9134079.778403-2.0689116 1.884537-3.8305327 3.318436-5.2849162 1.433899-1.4543834 3.154552-2.5810015 5.162011-3.3798882s4.260695-1.198324 6.759777-1.198324c2.499081 0 4.762559.3994373 6.790503 1.198324 2.027943.7988867 3.758838 1.9255048 5.192737 3.3798882 1.433899 1.4543835 2.540033 3.2160046 3.318436 5.2849162.778402 2.0689117 1.167598 4.3733579 1.167598 6.9134079 0 2.5400499-.389196 4.8342542-1.167598 6.8826815-.778403 2.0484274-1.884537 3.7998065-3.318436 5.25419-1.433899 1.4543834-3.164794 2.5707596-5.192737 3.349162-2.027944.7784024-4.291422 1.1675978-6.790503 1.1675978-2.499082 0-4.752318-.3891954-6.759777-1.1675978s-3.728112-1.8947786-5.162011-3.349162c-1.433899-1.4543835-2.540033-3.2057626-3.318436-5.25419-.778402-2.0484273-1.167597-4.3426316-1.167597-6.8826815zm36.226257-15.9162011h8.296089v5.8994413h.122905c.409685-.9832451.962753-1.8947817 1.659218-2.7346369s1.49534-1.556794 2.396648-2.150838c.901308-.5940439 1.864054-1.0549332 2.888268-1.3826815 1.024214-.3277484 2.08938-.4916201 3.195531-.4916201.573559 0 1.208562.1024198 1.905028.3072625v8.1117319c-.409686-.0819371-.901301-.153631-1.474861-.2150838-.573559-.0614529-1.126626-.0921788-1.659218-.0921788-1.597773 0-2.949715.2662916-4.055865.7988827-1.106151.5325911-1.997204 1.2597719-2.673185 2.1815642s-1.157354 1.9972006-1.444134 3.226257-.430167 2.5605143-.430167 3.9944134v14.3184358h-8.726257zm40.343575 35.7039106c-.942277 2.5810185-2.253251 4.4245754-3.932961 5.5307262s-4.014883 1.6592179-7.005587 1.6592179c-.901308 0-1.79236-.0307259-2.673184-.0921788-.880824-.0614528-1.771876-.1331467-2.673184-.2150838v-7.1899441c.819371.0819371 1.659213.163873 2.519553.2458101.860339.081937 1.720666.102421 2.581005.0614525 1.14712-.1229057 1.997204-.5735529 2.55028-1.3519553.553075-.7784024.829609-1.638729.829609-2.5810056 0-.6964653-.122904-1.3519523-.368715-1.9664805l-11.122905-29.8044692h9.279329l7.189944 21.7541899h.122905l6.944134-21.7541899h9.03352z" fill="#666"/><path d="m57.2661615 30.0690504 17.7338385 9.9309496v33.1632653l-20.8333333 1.6666667-54.1666667-1.6666667v-33.1632653l26.0257711-5.6055507 1.0575622-28.20165867c.5766342-.79519375 1.9655231-1.19279063 4.1666667-1.19279063s3.5900325.39759688 4.1666667 1.19279063l.9738469 25.96925257 9.6763036-2.0841269 1.155405-28.88512567c.6150765-.79519375 2.096558-1.19279063 4.4444445-1.19279063s3.8293679.39759688 4.4444444 1.19279063z" fill="#000"/><g fill="#f8ac3e" transform="translate(6.666667 39.166667)"><path d="m30.0833333 5.53718887c.4030958-3.07015492 2.1183736-4.85864598 5.1458334-5.36547318s4.7427376.78193376 5.1458333 3.86628287v23.53326144l-10.2916667.1381533z"/><path d="m0 9.84123896c0-2.36078858 1.31944444-3.77688863 3.95833333-4.24830012 2.63888889-.4714115 3.95833334.58027016 3.95833334 3.15504498v19.23938308l-7.91666667.1288527z"/><path d="m14.25 7.85045071c.1930215-2.69683816 1.6444104-4.2785473 4.3541667-4.74512741 2.7097562-.46658011 4.1611451.68461396 4.3541666 3.4535822v21.2377401l-8.7083333.1122266z"/></g></g></svg>