<svg enable-background="new 0 0 250.3 295.4" height="295.4" viewBox="0 0 250.3 295.4" width="250.3" xmlns="http://www.w3.org/2000/svg"><path d="m214.3 250h-214.3v-250h250v214.3c0 19.7-16 35.7-35.7 35.7z" fill="#dc4a17"/><path d="m189.3 52-163.9-52h-25.1v121.3z" fill="#c64013"/><path d="m0 0 189 52 61-52z" fill="#e25826"/><g fill="#736e6a"><path d="m19.1 266.4c3.3 0 6.3 1.3 8.8 3.8.9 1.1 1.3 2.3 1.3 3.7 0 3.3-2.5 5.7-7.5 7l-.9.1-6.5-.4v.1l14.7 7.7c.3.3.5 1 .7 2.1-.2 1.3-.8 2-1.7 2-.3 0-7.6-3.7-22.2-11h-.3v.1l.1 12.1c0 .6-.5 1-1.5 1.2-.9 0-1.5-.4-1.8-1.1l.1-2.6v-5.3l-.1-6.1c-1.2-.3-1.7-1.2-1.7-2.6l-.1-.8c0-1 .6-1.5 1.8-1.7v-1.8c-.6-.3-1.1-1-1.3-1.8-.4-.6-.6-1.2-.6-1.6 0-.8.7-1.3 2.1-1.5 0-.3.5-.7 1.4-1l1.4.6c6.6-.8 11.2-1.2 13.8-1.2zm-13.6 6v2.7c0 .2 2.8.6 8.4 1.3 2.9.3 5.1.4 6.6.4 2.7 0 4.4-.9 5.1-2.7l.2-.7c-.7-1.7-2.4-2.5-4.9-2.5-3.3 0-8.4.5-15.4 1.5z"/><path d="m49.4 266.3c1.1.1 1.7.6 1.7 1.6l-.1 1.6.3 15.2c.7.4 1 .9 1 1.5v.5c0 1-.3 1.9-1 2.7v.2l.1 2.4c0 .8-.6 1.3-1.7 1.5-.9 0-1.4-.6-1.5-1.9v-.4h-.2c-3.4 2.1-5.9 3.2-7.3 3.2h-.7c-3.1 0-5.2-1.6-6.1-4.7-.6-2.1-1-3.6-1-4.5l.1-13.7-.2-1.4c0-1 .6-1.5 1.8-1.5.7 0 1.2.5 1.5 1.4l-.1.6.1 10.4v2.2c0 3.6.8 5.7 2.5 6.4l.5.1h.9c.6 0 3.3-1.3 8.2-3.9l-.1-1.3c-.1-9.8-.3-15.4-.4-16.7 0-.8.6-1.3 1.7-1.5z"/><path d="m71.3 267.1c5.1 0 8.2 1.6 9.4 4.7l.2 1.2c0 .9-.5 2.3-1.5 4.2v.1c0 .3.7.7 2 1.2 2 1 2.9 2.5 2.9 4.5l.1.8c0 2.6-2.1 5.3-6.4 8.1-1.5 1-6.9 1.6-16.2 1.6h-2.4v.1c0 1.2-.5 1.8-1.4 1.8-.7 0-1.2-.6-1.5-1.7-.4 0-.7-.6-.9-1.8v-.4c0-.6.3-1.5.9-2.6v-.1l-.1-7.1h-.3l-.1.1c-.7-.3-1.1-.9-1.1-2.1 0-1.3.5-2.3 1.4-3v-.1l-.1-3.8c-1.1-1-1.6-1.9-1.6-2.6 0-.8.6-1.3 1.8-1.4.3-.5.7-.7 1.3-.7l1 .5c4.7-.8 8.9-1.2 12.6-1.5zm-12.4 6.5v2.8h2.9c9.1 0 14.1-.6 14.8-1.9.3 0 .6-.5.8-1.4 0-.9-1.5-1.3-4.4-1.3h-1.7c-3.9 0-8 .4-12.1 1.2-.1.2-.3.4-.3.6zm.1 7.9.1 3.9v2l.1 1.5h.1c9.8 0 15.2-.3 16.1-.9 4-1.3 5.9-2.8 5.9-4.3 0-2.5-2.6-3.7-7.9-3.7-8.4.5-13.2 1.1-14.4 1.5z"/><path d="m113.2 268.8c.8 0 1.3.5 1.6 1.6v.1c0 .8-1 1.6-3 2.3-5.6 2.9-8.5 4.4-8.6 4.5l.1.3c-.1.4-.3.9-.7 1.4l.2 13.7c-.3 1-.9 1.5-1.6 1.5-1.1-.1-1.6-.7-1.6-1.6v-8.2l-.1-5.2h-.2c-.8.5-1.3.8-1.7.8-.9-.4-1.4-1-1.4-1.8l.3-1.1c-3.9-1.9-6.6-3.2-8.2-3.7-.3-.3-.5-.7-.5-1.1 0-1 .5-2 1.5-2.9.3 0 .5-.1.5-.2.2 0 4.1 1.7 11.7 5.2h.3l11.1-5.6z"/><path d="m154.5 267c1.1.2 1.6.7 1.6 1.5l-.1 1.5.1 9.1v2.3c.9.6 1.3 1.1 1.3 1.5-.2 1.7-.6 2.6-1.3 2.6v2.6l.1 5c0 .8-.6 1.3-1.7 1.5-1 0-1.5-.6-1.5-1.7l.1-1.4-.1-2.5v-3l-15.2.1-.3.1v5.3l.1.1c-.2 1.2-.7 1.7-1.6 1.7h-.2c-1-.1-1.5-.6-1.5-1.4h-.1l.1-.6v-1.2l-.1-3.9c-1.1-.2-1.6-.7-1.6-1.6 0-1.2.5-2.2 1.6-3l-.1-3.9v-1.8l-.1-6.8c.2-.8.7-1.2 1.7-1.2.8 0 1.3.4 1.5 1.1l-.1 1.1.1 11.4h.1l9.8.1h5.5l.1-6.2v-3.5l-.1-3.4c.3-.9.8-1.3 1.9-1.5z"/><path d="m163.7 266.2c.2 0 .7.2 1.6.5h8.1l7.9.1c.8 0 1.4.9 2 2.6l.1.6c-.3 1-1.1 1.6-2.3 1.6l-15.8.3.1 2.3v2.8h13.4c1.4 0 2.2.6 2.6 1.7l.2 1c0 1.3-.7 1.9-2.2 1.9h-13.8v7.1h.1l16 .1c.7 0 1.4.9 1.9 2.8 0 .9-.7 1.5-2 1.7l-15.6.3c-.4 1.1-1 1.6-1.8 1.6-.9 0-1.6-.8-1.9-2.3-1-1.5-1.5-2.3-1.5-2.6 0-.8.6-1.3 1.7-1.6l-.1-.6v-6.8c-1.2-1-1.7-2-1.7-2.8s.5-1.4 1.6-1.6v-5.3c-.9-1-1.5-2-1.6-3.2 0-.9.6-1.5 1.9-1.7.4-.3.9-.5 1.1-.5z"/><path d="m204.6 266.4c3.3 0 6.3 1.3 8.8 3.8.9 1.1 1.3 2.3 1.3 3.7 0 3.3-2.5 5.7-7.5 7l-.9.1-6.5-.4v.1l14.7 7.7c.3.3.5 1 .7 2.1-.2 1.3-.8 2-1.7 2-.3 0-7.6-3.7-22.2-11h-.3v.1l.1 12.1c0 .6-.5 1-1.5 1.2-.9 0-1.5-.4-1.8-1.1l.1-2.6v-5.3l-.1-6.1c-1.2-.3-1.7-1.2-1.7-2.6l-.1-.8c0-1 .6-1.5 1.8-1.7v-1.8c-.6-.3-1.1-1-1.3-1.8-.4-.6-.6-1.2-.6-1.6 0-.8.7-1.3 2.1-1.5 0-.3.5-.7 1.4-1l1.4.6c6.6-.8 11.2-1.2 13.8-1.2zm-13.6 6v2.7c0 .2 2.8.6 8.4 1.3 2.9.3 5.1.4 6.6.4 2.7 0 4.4-.9 5.1-2.7l.2-.7c-.7-1.7-2.4-2.5-4.9-2.5-3.3 0-8.4.5-15.4 1.5z"/><path d="m236.9 267.4c3.7 0 6.7 1.5 9 4.5 1.3 2 2 4 2 6 0 4.9-3.6 9.6-10.9 14-3.4 1.5-6.3 2.3-8.7 2.3-3.7 0-6.6-1.8-8.7-5.4-.8-1.7-1.2-3.4-1.3-5.2 0-3.5 1.7-7 5.2-10.5 2.5-2.4 5.9-4.1 10-5.2zm-15.3 15.5v1c0 2.3 1.4 4 4.2 5.1.8.3 1.8.5 3 .5h.7c3 0 6.9-1.7 11.9-5.2 2-1.8 2.9-3.5 2.9-5.2v-1c0-1.8-.8-3.2-2.4-4.2-1.6-1.2-3.5-1.7-5.6-1.7-4 0-8.1 1.9-12.4 5.6-1.5 1.8-2.3 3.5-2.3 5.1z"/></g><path d="m102.5 250h97.5c27.6 0 50.3-22.4 50.3-50v-34.3z" fill="none"/><path d="m250.3 93.9v-93.9h-250v250h99l90-198z" fill="none"/><path d="m250.3 93.9-60.4-41.9-90.6 198h3.2l147.8-84.5z" fill="#e25826"/><path d="m64.5 109 32.4-32h55.9l32.7 32.2-60.6 60.7z" fill="#fff"/></svg>